<?xml version="1.0" encoding="utf-8"?>
<!DOCTYPE svg PUBLIC "-//W3C//DTD SVG 1.1//EN" "http://www.w3.org/Graphics/SVG/1.1/DTD/svg11.dtd">
<svg xmlns="http://www.w3.org/2000/svg" xmlns:xlink="http://www.w3.org/1999/xlink" version="1.1" baseProfile="full" width="96" height="96" viewBox="0 0 96.00 96.00" enable-background="new 0 0 96.00 96.00" xml:space="preserve">
	<rect x="0" y="2.28882e-005" fill="#220646" fill-opacity="1" stroke-width="1.5" stroke-linejoin="round" width="96" height="48"/>
	<g>
		<path fill="#FFFFFF" fill-opacity="1" stroke-width="0.2" stroke-linejoin="round" d="M 34.1829,30.7061C 34.1829,31.8525 33.9362,33.0944 33.4428,34.4318C 32.9493,35.7693 32.1713,37.0802 31.1087,38.3646C 30.0461,39.6489 28.6897,40.6932 27.0395,41.4972C 25.3894,42.3013 23.4672,42.7033 21.2731,42.7033C 19.6115,42.7033 18.0991,42.5295 16.7358,42.1819C 15.3725,41.8342 14.1435,41.2929 13.0488,40.5578C 11.954,39.8228 10.9637,38.8528 10.0778,37.6481C 9.2837,36.4964 8.60666,35.2067 8.04666,33.779C 7.48666,32.3514 7.06666,30.8268 6.78666,29.2054C 6.50667,27.584 6.36667,25.8631 6.36667,24.0427C 6.36667,21.0865 6.71896,18.4395 7.42355,16.1016C 8.12813,13.7637 9.13567,11.7629 10.4462,10.099C 11.7566,8.43518 13.3368,7.16937 15.1866,6.30164C 17.0364,5.43388 19.0079,5 21.101,5C 23.6531,5 25.9264,5.58514 27.9208,6.75541C 29.9152,7.92568 31.4438,9.3706 32.5064,11.0902C 33.569,12.8097 34.1003,14.4364 34.1003,15.9703C 34.1003,16.8088 33.8421,17.5492 33.3257,18.1914C 32.8093,18.8336 32.1839,19.1547 31.4495,19.1547C 30.6324,19.1547 30.0197,18.9265 29.6111,18.47C 29.2026,18.0136 28.7482,17.2281 28.2479,16.1136C 27.4125,14.2666 26.4325,12.8867 25.3079,11.9738C 24.1833,11.061 22.7948,10.6046 21.1423,10.6046C 18.5214,10.6046 16.4317,11.7801 14.8733,14.1313C 13.315,16.4824 12.5358,19.8234 12.5358,24.1542C 12.5358,27.0467 12.8801,29.4536 13.5686,31.3748C 14.2571,33.2961 15.2325,34.7304 16.4948,35.6777C 17.7571,36.6251 19.2351,37.0988 20.9289,37.0988C 22.7649,37.0988 24.3176,36.5614 25.5867,35.4867C 26.8559,34.4119 27.8141,32.8343 28.4613,30.7539C 28.7321,29.772 29.0684,28.9719 29.47,28.3536C 29.8716,27.7353 30.5177,27.4262 31.4082,27.4262C 32.1701,27.4262 32.8231,27.7393 33.367,28.3655C 33.9109,28.9918 34.1829,29.772 34.1829,30.7061 Z "/>
	</g>
	<g>
		<path fill="#FFFFFF" fill-opacity="1" stroke-width="0.2" stroke-linejoin="round" d="M 90.5,31.0794C 90.5,33.3191 90.0111,35.3306 89.0334,37.1138C 88.0557,38.8971 86.6248,40.2943 84.7405,41.3053C 82.8563,42.3164 80.622,42.8219 78.0378,42.8219C 74.9394,42.8219 72.3827,42.1187 70.3676,40.7122C 68.9722,39.7251 67.8396,38.4088 66.9698,36.7636C 66.1,35.1183 65.665,33.5181 65.665,31.9631C 65.665,31.0608 65.9267,30.2873 66.45,29.6424C 66.9732,28.9976 67.6365,28.6752 68.4398,28.6752C 69.0962,28.6752 69.6504,28.9233 70.1026,29.4195C 70.5547,29.9158 70.9414,30.6522 71.2627,31.6287C 71.6667,32.7857 72.1027,33.7543 72.5709,34.5345C 73.0391,35.3147 73.6989,35.9569 74.5504,36.461C 75.4019,36.9652 76.5207,37.2173 77.907,37.2173C 79.8119,37.2173 81.3587,36.7078 82.5476,35.6888C 83.7364,34.6698 84.3308,33.3987 84.3308,31.8755C 84.3308,30.6654 84.0095,29.6836 83.3669,28.9299C 82.7243,28.1763 81.8935,27.6005 80.8745,27.2024C 79.8555,26.8044 78.4922,26.3824 76.7847,25.9366C 74.5493,25.3263 72.6788,24.6151 71.1732,23.8031C 69.6676,22.991 68.4731,21.8818 67.5895,20.4754C 66.7059,19.0689 66.2641,17.3201 66.2641,15.2291C 66.2641,13.2388 66.7334,11.4715 67.6721,9.92702C 68.6108,8.38259 69.9683,7.19508 71.7447,6.36448C 73.5211,5.53387 75.6119,5.11858 78.0171,5.11858C 79.9358,5.11858 81.5951,5.39323 82.9951,5.94254C 84.3951,6.49185 85.5576,7.22028 86.4825,8.12784C 87.4074,9.0354 88.0833,9.98806 88.5102,10.9858C 88.937,11.9836 89.1505,12.9575 89.1505,13.9075C 89.1505,14.7726 88.8866,15.5528 88.3587,16.2481C 87.8308,16.9433 87.1721,17.291 86.3826,17.291C 85.662,17.291 85.1146,17.0972 84.7405,16.7098C 84.3664,16.3224 83.9613,15.6855 83.5253,14.7992C 82.9469,13.3556 82.2527,12.2304 81.4425,11.4237C 80.6323,10.617 79.3322,10.2136 77.542,10.2136C 75.8804,10.2136 74.5401,10.6316 73.5211,11.4675C 72.5021,12.3034 71.9926,13.3105 71.9926,14.4887C 71.9926,15.2158 72.1658,15.8434 72.5124,16.3715C 72.8589,16.8995 73.3363,17.3546 73.9445,17.7368C 74.5527,18.1189 75.1666,18.4174 75.7863,18.6324C 76.406,18.8473 77.4319,19.1618 78.864,19.5758C 80.6312,20.0587 82.2297,20.5895 83.6595,21.168C 85.0894,21.7465 86.3058,22.4497 87.3087,23.2776C 88.3116,24.1056 89.0943,25.1538 89.6566,26.4222C 90.2188,27.6907 90.5,29.2431 90.5,31.0794 Z "/>
	</g>
	<g>
		<path fill="#FFFFFF" fill-opacity="1" stroke-width="0.2" stroke-linejoin="round" d="M 61.0657,31.5059C 61.0657,33.7456 60.5769,35.757 59.5992,37.5403C 58.6215,39.3236 57.1905,40.7207 55.3062,41.7318C 53.422,42.7428 51.1877,43.2483 48.6035,43.2483C 45.5051,43.2483 42.9484,42.5451 40.9334,41.1387C 39.538,40.1515 38.4053,38.8353 37.5355,37.19C 36.6657,35.5448 36.2308,33.9446 36.2308,32.3895C 36.2308,31.4873 36.4924,30.7137 37.0157,30.0689C 37.539,29.4241 38.2022,29.1016 39.0055,29.1016C 39.6619,29.1016 40.2162,29.3498 40.6683,29.846C 41.1204,30.3422 41.5071,31.0786 41.8284,32.0552C 42.2324,33.2122 42.6684,34.1808 43.1366,34.9609C 43.6048,35.7411 44.2647,36.3833 45.1161,36.8875C 45.9676,37.3917 47.0865,37.6438 48.4727,37.6438C 50.3776,37.6438 51.9245,37.1343 53.1133,36.1153C 54.3022,35.0963 54.8966,33.8252 54.8966,32.302C 54.8966,31.0919 54.5753,30.11 53.9326,29.3564C 53.29,28.6028 52.4592,28.0269 51.4402,27.6289C 50.4212,27.2308 49.0579,26.8089 47.3504,26.3631C 45.115,25.7527 43.2445,25.0415 41.7389,24.2295C 40.2334,23.4175 39.0388,22.3083 38.1552,20.9018C 37.2716,19.4954 36.8298,17.7466 36.8298,15.6555C 36.8298,13.6653 37.2991,11.8979 38.2378,10.3535C 39.1765,8.80905 40.534,7.62154 42.3104,6.79093C 44.0868,5.96033 46.1776,5.54504 48.5828,5.54504C 50.5015,5.54504 52.1609,5.8197 53.5608,6.369C 54.9608,6.91831 56.1233,7.64675 57.0482,8.5543C 57.9731,9.46185 58.649,10.4145 59.0759,11.4123C 59.5028,12.4101 59.7162,13.384 59.7162,14.334C 59.7162,15.1991 59.4523,15.9793 58.9244,16.6745C 58.3966,17.3698 57.7379,17.7174 56.9484,17.7174C 56.2277,17.7174 55.6803,17.5237 55.3062,17.1363C 54.9321,16.7488 54.5271,16.1119 54.091,15.2256C 53.5126,13.782 52.8184,12.6569 52.0082,11.8502C 51.1981,11.0434 49.8979,10.6401 48.1078,10.6401C 46.4461,10.6401 45.1058,11.058 44.0868,11.8939C 43.0678,12.7298 42.5583,13.7369 42.5583,14.9151C 42.5583,15.6422 42.7316,16.2698 43.0781,16.7979C 43.4247,17.326 43.902,17.7811 44.5102,18.1632C 45.1184,18.5454 45.7324,18.8439 46.352,19.0588C 46.9717,19.2738 47.9976,19.5882 49.4297,20.0022C 51.1969,20.4852 52.7954,21.0159 54.2253,21.5944C 55.6551,22.1729 56.8715,22.8761 57.8744,23.7041C 58.8774,24.532 59.66,25.5802 60.2223,26.8487C 60.7846,28.1171 61.0657,29.6695 61.0657,31.5059 Z "/>
	</g>
	<rect x="1.01725e-005" y="48" fill="#4E669D" fill-opacity="1" stroke-width="0.2" stroke-linejoin="round" width="96" height="48"/>
	<path fill="#FFFF00" fill-opacity="1" stroke-width="0.2" stroke-linejoin="round" d="M 8.20833,61.8281C 6.85417,66.1719 4.14583,74.6094 3.66667,81.0781C 3.1875,87.5469 4.9375,92.0469 7.78125,94.2969C 10.625,96.5469 14.5625,96.5469 17.0417,94.4219C 19.5208,92.2969 20.5417,88.0469 20.1979,85.1719C 19.8542,82.2969 18.1458,80.7969 16.1458,81.526C 14.1458,82.2552 11.8542,85.2135 10.3229,85.9635C 8.79167,86.7135 8.02083,85.2552 8.51042,81.2552C 9,77.2552 10.75,70.7135 12.5937,66.9635C 14.4375,63.2135 16.375,62.2552 17.8854,61.1198C 19.3958,59.9844 20.4792,58.6719 19.5729,57.7031C 18.6667,56.7344 15.7708,56.1094 13.7708,56.0469C 11.7708,55.9844 10.6667,56.4844 10.1146,56.8594C 9.5625,57.2344 9.5625,57.4844 8.20833,61.8281 Z "/>
	<path fill="#FFFF00" fill-opacity="1" stroke-width="0.2" stroke-linejoin="round" d="M 83.4375,75.3414C 83.4375,77.1226 83.4375,79.0393 81.4698,80.3646C 79.5022,81.6899 75.5668,82.4238 73.4429,80.7908C 71.319,79.1578 71.0065,75.1578 71.5794,71.8349C 72.1523,68.5119 73.6107,65.8661 76.4429,63.6241C 79.2752,61.3822 83.4813,59.5441 86.8761,60C 90.2708,60.4559 92.8542,63.2059 93.3969,67.875C 93.9397,72.5441 92.4418,79.1322 90.4418,84.1634C 88.4418,89.1947 85.9397,92.6691 82.6886,93.7188C 79.4375,94.7684 75.4375,93.3934 72.2396,91.2059C 69.0417,89.0184 66.6458,86.0184 68.6458,86.1747C 70.6458,86.3309 77.0417,89.6434 81.4282,89.0625C 85.8147,88.4816 88.1918,84.0072 88.6502,79.0488C 89.1085,74.0905 87.648,68.6482 85.4802,66.7917C 83.3125,64.9351 80.4375,66.6643 78.5844,69.0417C 76.7313,71.4191 75.9002,74.4447 76.0679,75.9887C 76.2357,77.5328 77.4023,77.5953 78.7971,76.395C 80.1918,75.1947 81.8147,72.7316 82.6261,72.3229C 83.4375,71.9143 83.4375,73.5601 83.4375,75.3414 Z "/>
	<path fill="#FFFF00" fill-opacity="1" stroke-width="0.2" stroke-linejoin="round" d="M 51.0911,64C 55.0911,58 63.0911,54 66.362,56C 69.6328,58 68.1745,66 64.1745,72C 60.1745,78 53.6328,82 50.362,80C 47.0911,78 47.0911,70 51.0911,64 Z "/>
	<path fill="#FFFF00" fill-opacity="1" stroke-width="0.2" stroke-linejoin="round" d="M 37.9653,72.7361C 39.9653,70.7361 43.7951,67.0764 42.8559,64.3924C 41.9167,61.7083 36.2083,60 30.2083,60C 24.2083,60 17.9167,61.7083 20.7708,62.5625C 23.625,63.4167 35.625,63.4167 37.2604,65.4167C 38.8958,67.4167 30.1667,71.4167 30.1667,74.151C 30.1667,76.8854 38.8958,78.3542 39.2604,80.3542C 39.625,82.3542 31.625,84.8854 30.3229,86.6771C 29.0208,88.4688 34.4167,89.5208 38.4167,87.5208C 42.4167,85.5208 45.0208,80.4688 44.3229,77.9427C 43.625,75.4167 39.625,75.4167 37.7101,75.2465C 35.7951,75.0764 35.9653,74.7361 37.9653,72.7361 Z "/>
	<line fill="none" stroke-width="1.5" stroke-linejoin="round" stroke="#FFFF00" stroke-opacity="1" x1="12" y1="56.9104" x2="48" y2="48"/>
	<line fill="none" stroke-width="1.5" stroke-linejoin="round" stroke="#FFFF00" stroke-opacity="1" x1="31.6599" y1="60.9104" x2="48" y2="48"/>
	<line fill="none" stroke-width="1.5" stroke-linejoin="round" stroke="#FFFF00" stroke-opacity="1" x1="60.7224" y1="57.7854" x2="48" y2="48"/>
	<line fill="none" stroke-width="1.5" stroke-linejoin="round" stroke="#FFFF00" stroke-opacity="1" x1="88.2849" y1="61.0979" x2="48" y2="48"/>
	<line fill="none" stroke-width="1.5" stroke-linejoin="round" stroke="#FFFF00" stroke-opacity="1" x1="0" y1="48" x2="96" y2="48"/>
</svg>
